<svg xmlns="http://www.w3.org/2000/svg" xmlns:xlink="http://www.w3.org/1999/xlink" version="1.1" x="0px" y="0px" viewBox="0 0 64 80" enable-background="new 0 0 64 64" xml:space="preserve"><g><path d="M17.886,29.257c-0.399-0.4-1.028-0.4-1.429,0c-0.399,0.371-0.399,1.028,0,1.4L27.26,41.488l0.714,0.715l0.715-0.715   l16.947-16.947c0.942,2.286,1.485,4.802,1.485,7.46c0,5.286-2.144,10.088-5.601,13.546c-3.458,3.458-8.26,5.602-13.547,5.602   c-5.286,0-10.088-2.144-13.545-5.602c-3.458-3.458-5.602-8.26-5.602-13.546c0-5.288,2.144-10.089,5.602-13.547   c3.457-3.458,8.259-5.602,13.545-5.602c5.287,0,10.089,2.144,13.547,5.602c1.229,1.229,2.314,2.629,3.172,4.173L27.974,39.346   L17.886,29.257z M47.15,23.026l9.773-9.773c0.371-0.4,0.371-1.029,0-1.429c-0.4-0.4-1.029-0.4-1.43,0l-9.345,9.316   c-0.886-1.486-1.972-2.887-3.2-4.115c-3.83-3.83-9.146-6.202-14.976-6.202c-5.858,0-11.145,2.372-14.975,6.202   c-3.829,3.829-6.201,9.116-6.201,14.976c0,5.83,2.372,11.146,6.201,14.975c3.83,3.83,9.116,6.201,14.975,6.201   c5.83,0,11.146-2.371,14.976-6.201c3.829-3.829,6.201-9.145,6.201-14.975C49.15,28.8,48.436,25.741,47.15,23.026L47.15,23.026z"/></g><text x="0" y="79" fill="#000000" font-size="5px" font-weight="bold" font-family="'Helvetica Neue', Helvetica, Arial-Unicode, Arial, Sans-serif">Created by Ongycon</text><text x="0" y="84" fill="#000000" font-size="5px" font-weight="bold" font-family="'Helvetica Neue', Helvetica, Arial-Unicode, Arial, Sans-serif">from the Noun Project</text></svg>